PathFileType	4	(X/Y/Z)	E:\Studenten\Marcel_BSc\Ayumi_25_09_2024\25-09-2024\sumo_dl_80kg.trc
DataRate	CameraRate	NumFrames	NumMarkers	Units	OrigDataRate	OrigDataStartFrame	OrigNumFrames
200.0	200.0	7	52	mm	200.0	1767	2827	
Frame#	Time	RSACR			LSACR			USACR			LBAR			RBAR			RHEE			RMT1			RMT5			RMT2			LHEE			LMT1			LMT5			LMT2			LMMAL			LLMAL			LTIB4			LTIB2			LTIB3			LTIB1			RMMAL			RLMAL			RTIB1			RTIB2			RTIB3			RTHI1			RTHI4			RTHI3			RTHI2			LTHI1			LTHI4			LTHI3			LTHI2			FHD			LBHD			RBHD			C7			T10			CLAV			LSHO			RSHO			LRAD			LUL			LRFIN			RRAD			RUL			RUFIN			LDUPA			LMUPA			LUUPA			RDUPA			RUUPA			RMUPA			
		X1	Y1	Z1	X2	Y2	Z2	X3	Y3	Z3	X4	Y4	Z4	X5	Y5	Z5	X6	Y6	Z6	X7	Y7	Z7	X8	Y8	Z8	X9	Y9	Z9	X10	Y10	Z10	X11	Y11	Z11	X12	Y12	Z12	X13	Y13	Z13	X14	Y14	Z14	X15	Y15	Z15	X16	Y16	Z16	X17	Y17	Z17	X18	Y18	Z18	X19	Y19	Z19	X20	Y20	Z20	X21	Y21	Z21	X22	Y22	Z22	X23	Y23	Z23	X24	Y24	Z24	X25	Y25	Z25	X26	Y26	Z26	X27	Y27	Z27	X28	Y28	Z28	X29	Y29	Z29	X30	Y30	Z30	X31	Y31	Z31	X32	Y32	Z32	X33	Y33	Z33	X34	Y34	Z34	X35	Y35	Z35	X36	Y36	Z36	X37	Y37	Z37	X38	Y38	Z38	X39	Y39	Z39	X40	Y40	Z40	X41	Y41	Z41	X42	Y42	Z42	X43	Y43	Z43	X44	Y44	Z44	X45	Y45	Z45	X46	Y46	Z46	X47	Y47	Z47	X48	Y48	Z48	X49	Y49	Z49	X50	Y50	Z50	X51	Y51	Z51	X52	Y52	Z52	
1767	8.83	394.3548	828.4848	-972.83875	396.48251	832.56866	-914.74005	387.77426	846.72949	-944.21283	223.19687	622.26086	179.31061	179.01443	600.85767	-2041.1504	291.40512	28.091532	-1380.2975	126.32817	44.732964	-1490.6019	191.53262	29.919199	-1538.8195	155.19504	42.193203	-1519.2673	333.78152	39.317276	-483.32932	163.71104	49.994198	-386.83215	226.4063	30.372969	-336.64758	188.54512	46.437771	-356.77475	272.77957	64.293732	-500.19418	313.98328	73.112381	-430.89597	338.27017	200.65039	-503.05884	324.71307	263.43967	-515.80035	363.63037	245.75739	-543.862	359.30286	288.61008	-556.71808	240.57678	56.555786	-1373.5597	283.03452	70.751869	-1432.2758	304.88382	299.83542	-1329.8545	345.28702	274.52811	-1311.1248	309.60312	238.22852	-1352.6328	333.12747	715.16608	-1111.9413	290.65063	589.5495	-1192.2927	332.57922	571.09491	-1170.6281	323.0748	635.20007	-1157.4866	343.07431	723.53497	-763.22864	337.24377	598.53027	-692.86877	292.68503	609.95752	-669.08661	317.19113	660.62439	-702.63037	262.14661	1488.363	-861.96112	373.92972	1476.7325	-874.36829	382.99973	1460.6394	-997.77509	393.67966	1260.9924	-935.40851	380.24011	890.05164	-942.49634	255.83455	1226.2767	-941.97546	344.02811	1222.0239	-760.24866	305.77386	1227.1459	-1101.1815	189.54921	704.73352	-709.59509	189.43674	705.07678	-668.5426	165.68907	620.89337	-724.54071	181.51973	698.80896	-1155.655	177.33348	696.1496	-1203.8694	154.09079	616.53864	-1140.7267	246.35524	1012.3298	-731.40735	265.85635	985.1286	-694.8349	276.09698	1062.0905	-710.93463	216.7552	978.07855	-1124.2178	246.22014	1045.8264	-1153.7959	239.53813	985.40106	-1168.0675
1768	8.835	394.82318	828.63245	-972.81116	396.9483	832.75195	-914.75909	388.20663	846.88513	-944.22009	223.27534	622.24146	179.50127	178.83716	600.90765	-2040.9351	291.40112	28.09548	-1380.3213	126.32142	44.678352	-1490.6431	191.53899	29.942619	-1538.8051	155.19608	42.201622	-1519.2633	333.85657	39.331768	-483.25031	163.73891	49.998478	-386.78558	226.42256	30.352993	-336.60934	188.56367	46.426682	-356.73715	272.88132	64.350777	-500.07861	314.05347	73.053383	-430.74548	338.32886	200.74174	-502.59732	324.70758	263.55701	-515.34039	363.93951	245.9668	-543.14386	359.3522	288.79706	-556.16345	240.58247	56.575535	-1373.5756	283.05588	70.757401	-1432.2803	304.78494	299.88855	-1329.9636	345.26294	274.64227	-1311.2853	309.51175	238.28545	-1352.7358	333.59583	715.31451	-1112.0541	290.75327	589.58789	-1192.2344	332.74744	571.15314	-1170.6864	323.21902	635.29382	-1157.5573	343.46307	723.66888	-763.08234	337.46146	598.69037	-692.43256	292.74844	610.07996	-668.85205	317.3392	660.724	-702.37305	262.26755	1488.573	-862.05487	374.03192	1476.744	-874.39984	383.07068	1460.5685	-997.80023	393.56625	1261.1466	-935.30768	380.63696	890.18585	-942.49518	255.75676	1226.2279	-941.9469	343.69604	1222.1648	-760.09546	305.70303	1227.2061	-1101.1183	189.59679	704.7428	-709.44763	189.48015	705.09113	-668.40125	165.75551	620.93262	-724.3512	181.5759	698.79712	-1155.4349	177.29222	696.19342	-1203.6781	154.06625	616.62012	-1140.5244	246.19159	1012.3316	-731.49664	265.58472	985.17102	-694.9126	275.79333	1062.1514	-710.98578	216.87776	978.01892	-1123.918	246.13956	1045.8263	-1153.5421	239.48793	985.40253	-1167.8381
1769	8.84	395.2438	828.77777	-972.80573	397.37994	832.94586	-914.78143	388.58853	847.03345	-944.27252	223.3638	622.22528	179.68205	178.6579	600.98187	-2040.7217	291.40292	28.11318	-1380.3213	126.32087	44.694485	-1490.6343	191.54875	29.960463	-1538.8042	155.20531	42.200985	-1519.257	333.91238	39.340694	-483.16962	163.76263	49.992367	-386.74731	226.43884	30.323994	-336.56546	188.59015	46.41573	-356.70425	272.94974	64.434616	-500.0072	314.11996	73.033058	-430.60309	338.33929	200.86499	-502.18964	324.69034	263.64737	-514.88837	364.01132	246.12839	-542.59619	359.35764	288.99768	-555.5556	240.59454	56.581455	-1373.5793	283.0549	70.773613	-1432.3141	304.71103	299.9498	-1330.0458	345.21179	274.73773	-1311.4253	309.41495	238.3732	-1352.8379	333.86285	715.31104	-1111.958	290.82697	589.6347	-1192.1742	332.86194	571.16327	-1170.7228	323.38434	635.3327	-1157.5029	343.82962	723.82764	-762.94409	337.63342	598.88159	-691.94073	292.76276	610.20349	-668.60944	317.43265	660.84692	-702.08026	262.34744	1488.7654	-862.10175	374.08353	1476.7659	-874.43359	383.10513	1460.5209	-997.84967	393.46631	1261.2917	-935.2207	381.01099	890.3316	-942.49988	255.67215	1226.1892	-941.91357	343.41312	1222.2897	-759.9621	305.60056	1227.2714	-1101.0654	189.38457	704.8197	-709.28253	189.5343	705.11755	-668.24622	165.80856	620.97498	-724.1781	181.63507	698.83197	-1155.2362	177.34412	696.23187	-1203.4772	154.08827	616.71014	-1140.3224	246.03307	1012.3465	-731.65015	265.34833	985.2207	-694.94238	275.51355	1062.1938	-711.02411	216.92461	977.91559	-1123.5251	246.04465	1045.8477	-1153.3324	239.39935	985.40308	-1167.5901
1770	8.845	395.5575	828.89172	-972.84454	397.79941	833.14197	-914.81628	388.93976	847.18219	-944.31592	223.53815	622.17499	179.69608	178.48627	601.08551	-2040.5193	291.41461	28.119333	-1380.3032	126.31399	44.683178	-1490.6376	191.55615	29.985447	-1538.7992	155.2182	42.198078	-1519.2377	333.95261	39.35601	-483.09277	163.78699	49.993694	-386.72214	226.45065	30.301416	-336.5329	188.59175	46.392765	-356.68356	273.03348	64.512405	-499.90085	314.19876	73.024292	-430.45654	338.32947	200.97635	-501.81998	324.58578	263.72244	-514.48724	363.86118	246.31009	-542.27472	359.11719	289.11966	-555.02356	240.59866	56.589512	-1373.5848	283.05963	70.784569	-1432.3114	304.62436	300.01855	-1330.1176	345.14017	274.80328	-1311.5374	309.3783	238.37788	-1352.9036	334.10672	715.28546	-1111.8867	290.84027	589.68103	-1192.099	332.93747	571.17163	-1170.7489	323.48254	635.30402	-1157.457	344.1904	723.98151	-762.79401	337.65771	598.96973	-691.54193	292.74915	610.29181	-668.3728	317.50278	660.94733	-701.77747	262.40338	1488.9188	-862.10553	374.11993	1476.7966	-874.45239	383.11337	1460.5023	-997.86725	393.37213	1261.4292	-935.15863	381.32812	890.44543	-942.5307	255.58638	1226.1544	-941.87787	343.16653	1222.3929	-759.84625	305.48743	1227.3502	-1101.015	189.4548	704.83112	-709.12	189.60683	705.14948	-668.09399	165.50966	621.22614	-724.29877	181.6962	698.86401	-1155.0355	177.40636	696.27277	-1203.2722	154.07329	616.81256	-1140.1022	245.93428	1012.3616	-731.79596	265.13788	985.27869	-694.99487	275.58636	1062.2747	-711.01611	217.002	978.0014	-1123.295	245.91216	1045.8894	-1153.1199	239.30441	985.43494	-1167.3516
1771	8.85	395.84741	828.99463	-972.90155	398.15268	833.30615	-914.88647	389.24744	847.30249	-944.37927	223.67036	622.15021	179.90582	178.31367	601.21741	-2040.3428	291.41534	28.123308	-1380.3092	126.31602	44.678768	-1490.6134	191.55321	30.000294	-1538.7864	155.21504	42.203438	-1519.2219	333.98746	39.348938	-483.03122	163.81102	50.007156	-386.6821	226.46718	30.278301	-336.5097	188.58447	46.382778	-356.67047	273.10403	64.564789	-499.82129	314.26358	73.005219	-430.33609	338.32947	201.05084	-501.4946	324.48535	263.81067	-514.10754	364.01813	246.52402	-541.63593	359.05499	289.30972	-554.53241	240.59538	56.585869	-1373.567	283.05811	70.797668	-1432.3193	304.52563	300.02078	-1330.145	345.07217	274.85092	-1311.6056	309.32254	238.39853	-1352.922	334.26422	715.2168	-1111.7722	290.83478	589.7124	-1192.0367	332.95822	571.16809	-1170.7865	323.5444	635.33472	-1157.4082	344.46707	724.12543	-762.6828	337.7681	599.07257	-691.03522	292.6875	610.35791	-668.16406	317.53583	661.02057	-701.5	262.43787	1489.0353	-862.09509	374.13834	1476.847	-874.4845	383.07974	1460.4896	-997.89642	393.27402	1261.5594	-935.13062	381.60889	890.56653	-942.59399	255.51906	1226.1218	-941.82794	343.01328	1222.4747	-759.75415	305.35287	1227.4502	-1100.9709	189.80077	704.80652	-708.95496	189.70546	705.18079	-667.92023	165.58751	621.28217	-724.08575	181.76781	698.89789	-1154.8348	177.43745	696.30139	-1203.0723	154.07733	616.8938	-1139.8911	245.92751	1012.3615	-731.92981	265.04108	985.32898	-695.0257	275.24622	1062.3131	-711.16644	217.00206	978.02496	-1123.0378	245.76611	1045.9426	-1152.923	239.17415	985.48889	-1167.1653
1772	8.855	396.06393	829.07501	-972.96124	398.4306	833.43561	-914.95441	389.48328	847.40118	-944.46783	223.76346	622.15106	180.28072	178.16705	601.35468	-2040.1454	291.40851	28.114935	-1380.3174	126.32787	44.650719	-1490.6184	191.55531	30.012861	-1538.7891	155.21935	42.200542	-1519.2042	334.0032	39.340488	-482.97461	163.82881	50.009491	-386.67178	226.47452	30.270224	-336.47833	188.59824	46.377586	-356.64471	273.15759	64.621094	-499.74548	314.35199	72.947731	-430.24695	338.25195	201.13725	-501.24103	324.37238	263.86462	-513.85797	363.82614	246.66327	-541.43311	358.97644	289.48779	-554.11871	240.59978	56.57259	-1373.5686	283.05371	70.805969	-1432.3071	304.47162	300.02112	-1330.1406	345.04623	274.85553	-1311.6162	309.2504	238.40256	-1352.9259	334.35272	715.21912	-1111.7583	290.76346	589.71692	-1191.9626	332.94171	571.17639	-1170.8063	323.52206	635.34222	-1157.4369	344.6936	724.27472	-762.58508	337.80841	599.16418	-690.62079	292.66748	610.41833	-667.93353	317.57166	661.08203	-701.18536	262.45749	1489.1133	-862.10278	374.13107	1476.9117	-874.49261	383.01846	1460.5144	-997.91907	393.19751	1261.6594	-935.10657	381.81757	890.64313	-942.66742	255.46545	1226.0938	-941.78009	342.93436	1222.5284	-759.69019	305.2128	1227.5262	-1100.9309	189.912	704.83008	-708.7951	189.8419	705.21417	-667.74634	166.02847	621.12952	-723.56732	181.81885	698.92914	-1154.6533	177.48242	696.37427	-1203.0739	154.07199	617.00281	-1139.6676	246.00603	1012.3355	-732.01105	265.05618	985.35297	-695.06836	275.2489	1062.3286	-711.21539	216.97498	978.04559	-1122.8188	245.6109	1046.0061	-1152.769	239.02565	985.55444	-1167.0181
1773	8.86	396.2467	829.13214	-973.06244	398.68713	833.54218	-915.04816	389.68475	847.47791	-944.55933	223.99962	622.09314	180.3354	178.04321	601.49896	-2039.9325	291.39633	28.113323	-1380.3108	126.3417	44.675869	-1490.5776	191.55574	30.031725	-1538.7793	155.20831	42.202938	-1519.1906	334.03232	39.354481	-482.93689	163.84624	49.999214	-386.66119	226.46901	30.259014	-336.46286	188.59933	46.363747	-356.63495	273.20718	64.645805	-499.69406	314.33063	72.96666	-430.18423	338.20999	201.21043	-501.03348	324.24921	263.92352	-513.61664	363.7627	246.80206	-541.15106	359.12622	289.68665	-553.78632	240.59039	56.561905	-1373.5641	283.04749	70.818451	-1432.3035	304.35471	300.00153	-1330.0958	344.98654	274.85315	-1311.6083	309.22998	238.39267	-1352.8788	334.37921	715.1925	-1111.7533	290.65878	589.68457	-1191.9143	332.8602	571.17572	-1170.8573	323.52484	635.34955	-1157.4318	344.88446	724.39722	-762.52057	337.87857	599.25952	-690.22894	292.59256	610.43353	-667.71417	317.5874	661.11163	-700.91028	262.4588	1489.1775	-862.07587	374.1272	1476.9932	-874.50665	382.93661	1460.5381	-997.91589	393.13141	1261.7529	-935.12494	381.98828	890.69922	-942.75342	255.42787	1226.0709	-941.72577	342.94656	1222.5532	-759.65228	305.056	1227.6182	-1100.8947	189.77209	704.87903	-708.61285	190.01091	705.2395	-667.56537	166.0845	621.19421	-723.37225	181.8752	698.94946	-1154.4459	177.51988	696.35358	-1202.6602	154.07887	617.10223	-1139.4473	246.16655	1012.304	-732.01648	265.20142	985.349	-695.05457	275.35352	1062.3119	-711.23694	216.94241	978.11493	-1122.6927	245.43138	1046.0905	-1152.6537	238.86023	985.63147	-1166.8938
